<svg xmlns="http://www.w3.org/2000/svg" xmlns:xlink="http://www.w3.org/1999/xlink" width="100" zoomAndPan="magnify" viewBox="0 0 75 74.999997" height="100" preserveAspectRatio="xMidYMid meet" version="1.0"><defs><clipPath id="cbe18ecb2f"><path d="M 0 7.5 L 75 7.5 L 75 72 L 0 72 Z M 0 7.5 " clip-rule="nonzero"/></clipPath></defs><g clip-path="url(#cbe18ecb2f)"><path fill="#534599" d="M 0.015625 33.453125 C 6.175781 31.246094 11.976562 36.210938 23.46875 54.898438 C 34.777344 33.078125 49.09375 14.765625 73.285156 7.5 C 73.851562 8.140625 74.417969 8.78125 74.984375 9.421875 C 73.492188 10.65625 72.121094 12.082031 70.492188 13.101562 C 49.613281 26.164062 34.589844 43.671875 28.277344 67.96875 C 27.882812 69.472656 25.9375 71.632812 24.738281 71.617188 C 23.089844 71.59375 20.800781 70.175781 19.933594 68.683594 C 13.183594 57.109375 6.707031 45.375 0.015625 33.453125 " fill-opacity="1" fill-rule="nonzero"/></g></svg>